<?xml version="1.0" encoding="UTF-8" standalone="no"?>
<!DOCTYPE svg PUBLIC "-//W3C//DTD SVG 1.1//EN" "http://www.w3.org/Graphics/SVG/1.1/DTD/svg11.dtd">
<svg width="100%" height="100%" viewBox="50 75 940 125" version="1.1" xmlns="http://www.w3.org/2000/svg" xmlns:xlink="http://www.w3.org/1999/xlink" xml:space="preserve" xmlns:serif="http://www.serif.com/" style="fill-rule:evenodd;clip-rule:evenodd;stroke-linecap:round;stroke-linejoin:round;">
    <g transform="matrix(1.38,0,0,1.38,132.948375,138.209053)">
        <g transform="matrix(1,0,0,1,-50,-50)">
            <g transform="matrix(4.166667,0,0,4.166667,0,0)">
                <path d="M13,13.74C12.382,14.097 11.618,14.097 11,13.74L2.5,8.87C2.187,8.693 1.993,8.36 1.993,8C1.993,7.64 2.187,7.307 2.5,7.13L11,2.26C11.618,1.903 12.382,1.903 13,2.26L21.5,7.13C21.813,7.307 22.007,7.64 22.007,8C22.007,8.36 21.813,8.693 21.5,8.87L13,13.74Z" style="fill:none;fill-rule:nonzero;stroke:black;stroke-width:2px;"/>
            </g>
            <g transform="matrix(4.166667,0,0,4.166667,0,0)">
                <path d="M20,14.285L21.5,15.13C21.813,15.307 22.007,15.64 22.007,16C22.007,16.36 21.813,16.693 21.5,16.87L13,21.74C12.382,22.097 11.618,22.097 11,21.74L2.5,16.87C2.187,16.693 1.993,16.36 1.993,16C1.993,15.64 2.187,15.307 2.5,15.13L4,14.285" style="fill:none;fill-rule:nonzero;stroke:black;stroke-width:2px;"/>
            </g>
        </g>
    </g>
    <g transform="matrix(1.730001,0,0,1.730001,-616.007702,-774.292865)">
        <g transform="matrix(50,0,0,50,476.057973,547.730259)">
            <path d="M0.057,-0L0.057,-0.728L0.355,-0.728C0.409,-0.728 0.457,-0.717 0.496,-0.696C0.536,-0.675 0.566,-0.645 0.588,-0.607C0.609,-0.57 0.62,-0.526 0.62,-0.476C0.62,-0.426 0.609,-0.382 0.587,-0.345C0.565,-0.308 0.534,-0.279 0.494,-0.258C0.453,-0.238 0.405,-0.227 0.35,-0.227L0.165,-0.227L0.165,-0.363L0.318,-0.363C0.345,-0.363 0.368,-0.368 0.386,-0.377C0.404,-0.387 0.418,-0.4 0.427,-0.417C0.436,-0.434 0.441,-0.454 0.441,-0.476C0.441,-0.499 0.436,-0.519 0.427,-0.536C0.418,-0.552 0.404,-0.565 0.386,-0.574C0.368,-0.583 0.345,-0.588 0.318,-0.588L0.229,-0.588L0.229,-0L0.057,-0Z" style="fill:rgb(35,31,32);fill-rule:nonzero;"/>
        </g>
        <g transform="matrix(50,0,0,50,505.756224,547.730259)">
            <path d="M0.209,0.01C0.174,0.01 0.143,0.004 0.116,-0.008C0.089,-0.02 0.068,-0.038 0.052,-0.062C0.037,-0.086 0.029,-0.116 0.029,-0.152C0.029,-0.182 0.034,-0.207 0.045,-0.228C0.056,-0.249 0.07,-0.266 0.089,-0.279C0.108,-0.292 0.13,-0.302 0.154,-0.308C0.179,-0.315 0.205,-0.32 0.232,-0.322C0.263,-0.325 0.288,-0.328 0.307,-0.331C0.326,-0.334 0.34,-0.338 0.349,-0.345C0.357,-0.351 0.362,-0.359 0.362,-0.371L0.362,-0.373C0.362,-0.385 0.359,-0.396 0.353,-0.405C0.347,-0.414 0.339,-0.42 0.328,-0.425C0.317,-0.429 0.303,-0.432 0.287,-0.432C0.272,-0.432 0.258,-0.429 0.246,-0.425C0.234,-0.42 0.224,-0.414 0.216,-0.405C0.208,-0.397 0.202,-0.387 0.199,-0.375L0.045,-0.396C0.052,-0.427 0.066,-0.454 0.087,-0.478C0.108,-0.501 0.136,-0.52 0.17,-0.533C0.204,-0.546 0.244,-0.553 0.289,-0.553C0.323,-0.553 0.355,-0.549 0.384,-0.541C0.413,-0.533 0.439,-0.521 0.461,-0.506C0.484,-0.49 0.501,-0.471 0.513,-0.448C0.526,-0.426 0.532,-0.4 0.532,-0.371L0.532,-0L0.372,-0L0.372,-0.076L0.367,-0.076C0.357,-0.058 0.345,-0.042 0.33,-0.029C0.315,-0.017 0.297,-0.007 0.277,-0C0.257,0.006 0.234,0.01 0.209,0.01ZM0.261,-0.103C0.28,-0.103 0.297,-0.107 0.313,-0.115C0.328,-0.123 0.34,-0.133 0.349,-0.147C0.359,-0.161 0.363,-0.176 0.363,-0.194L0.363,-0.247C0.358,-0.244 0.352,-0.242 0.345,-0.239C0.337,-0.237 0.329,-0.235 0.321,-0.233C0.312,-0.231 0.303,-0.23 0.294,-0.228C0.285,-0.227 0.277,-0.225 0.269,-0.224C0.252,-0.222 0.238,-0.218 0.227,-0.212C0.215,-0.207 0.206,-0.2 0.2,-0.191C0.194,-0.182 0.191,-0.172 0.191,-0.159C0.191,-0.147 0.194,-0.137 0.2,-0.129C0.206,-0.12 0.214,-0.114 0.224,-0.11C0.235,-0.105 0.247,-0.103 0.261,-0.103Z" style="fill:rgb(35,31,32);fill-rule:nonzero;"/>
        </g>
        <g transform="matrix(50,0,0,50,533.16835,547.730259)">
            <path d="M0.056,0.204L0.056,-0.546L0.224,-0.546L0.224,-0.452L0.231,-0.452C0.237,-0.469 0.247,-0.485 0.26,-0.5C0.274,-0.515 0.29,-0.528 0.311,-0.538C0.331,-0.548 0.356,-0.553 0.385,-0.553C0.423,-0.553 0.459,-0.543 0.492,-0.523C0.525,-0.503 0.552,-0.472 0.572,-0.43C0.592,-0.389 0.602,-0.336 0.602,-0.272C0.602,-0.211 0.593,-0.159 0.573,-0.117C0.554,-0.076 0.527,-0.045 0.494,-0.024C0.461,-0.002 0.424,0.008 0.384,0.008C0.356,0.008 0.332,0.003 0.312,-0.006C0.292,-0.015 0.275,-0.027 0.261,-0.042C0.248,-0.056 0.238,-0.072 0.231,-0.089L0.227,-0.089L0.227,0.204L0.056,0.204ZM0.326,-0.125C0.348,-0.125 0.366,-0.131 0.381,-0.143C0.396,-0.156 0.408,-0.173 0.415,-0.195C0.423,-0.217 0.427,-0.243 0.427,-0.272C0.427,-0.302 0.423,-0.328 0.416,-0.35C0.408,-0.372 0.396,-0.389 0.381,-0.401C0.366,-0.413 0.348,-0.42 0.326,-0.42C0.304,-0.42 0.285,-0.414 0.27,-0.402C0.255,-0.39 0.243,-0.373 0.235,-0.351C0.227,-0.329 0.223,-0.303 0.223,-0.272C0.223,-0.243 0.227,-0.217 0.235,-0.195C0.243,-0.173 0.255,-0.156 0.27,-0.143C0.286,-0.131 0.304,-0.125 0.326,-0.125Z" style="fill:rgb(35,31,32);fill-rule:nonzero;"/>
        </g>
        <g transform="matrix(50,0,0,50,563.045319,547.730259)">
            <path d="M0.31,0.01C0.253,0.01 0.204,-0.001 0.163,-0.024C0.122,-0.046 0.09,-0.078 0.068,-0.12C0.046,-0.162 0.035,-0.213 0.035,-0.271C0.035,-0.327 0.046,-0.376 0.068,-0.419C0.09,-0.461 0.121,-0.494 0.162,-0.517C0.202,-0.541 0.25,-0.553 0.304,-0.553C0.343,-0.553 0.378,-0.547 0.41,-0.535C0.442,-0.523 0.47,-0.505 0.493,-0.481C0.517,-0.458 0.535,-0.429 0.548,-0.394C0.561,-0.359 0.568,-0.319 0.568,-0.274L0.568,-0.231L0.096,-0.231L0.096,-0.331L0.486,-0.331L0.407,-0.307C0.407,-0.333 0.403,-0.354 0.395,-0.373C0.388,-0.391 0.376,-0.405 0.361,-0.415C0.347,-0.424 0.328,-0.429 0.306,-0.429C0.283,-0.429 0.265,-0.424 0.249,-0.414C0.234,-0.405 0.223,-0.391 0.215,-0.373C0.207,-0.355 0.203,-0.334 0.203,-0.311L0.203,-0.239C0.203,-0.211 0.207,-0.188 0.216,-0.169C0.226,-0.15 0.239,-0.136 0.255,-0.127C0.272,-0.118 0.291,-0.113 0.313,-0.113C0.329,-0.113 0.343,-0.115 0.355,-0.12C0.368,-0.124 0.378,-0.13 0.387,-0.139C0.396,-0.147 0.403,-0.157 0.408,-0.169L0.56,-0.144C0.551,-0.113 0.535,-0.086 0.512,-0.063C0.49,-0.039 0.462,-0.022 0.428,-0.009C0.394,0.004 0.355,0.01 0.31,0.01Z" style="fill:rgb(35,31,32);fill-rule:nonzero;"/>
        </g>
        <g transform="matrix(50,0,0,50,591.086347,547.730259)">
            <path d="M0.056,-0L0.056,-0.546L0.221,-0.546L0.221,-0.446L0.227,-0.446C0.237,-0.482 0.253,-0.509 0.276,-0.527C0.299,-0.544 0.325,-0.553 0.355,-0.553C0.363,-0.553 0.371,-0.552 0.38,-0.551C0.388,-0.55 0.396,-0.549 0.403,-0.547L0.403,-0.399C0.395,-0.401 0.385,-0.404 0.371,-0.405C0.358,-0.406 0.346,-0.407 0.336,-0.407C0.315,-0.407 0.296,-0.403 0.28,-0.393C0.263,-0.384 0.25,-0.371 0.241,-0.355C0.231,-0.339 0.227,-0.32 0.227,-0.298L0.227,-0L0.056,-0Z" style="fill:rgb(35,31,32);fill-rule:nonzero;"/>
        </g>
        <g transform="matrix(50,0,0,50,610.080515,547.730259)">
            <path d="M0.389,0.01C0.32,0.01 0.259,-0.005 0.207,-0.035C0.154,-0.066 0.114,-0.109 0.084,-0.164C0.055,-0.22 0.04,-0.286 0.04,-0.363C0.04,-0.442 0.056,-0.51 0.087,-0.565C0.118,-0.621 0.159,-0.664 0.212,-0.693C0.264,-0.723 0.323,-0.737 0.387,-0.737C0.429,-0.737 0.468,-0.731 0.504,-0.719C0.54,-0.707 0.572,-0.69 0.6,-0.668C0.629,-0.646 0.651,-0.62 0.669,-0.59C0.686,-0.56 0.697,-0.526 0.702,-0.49L0.527,-0.49C0.523,-0.505 0.517,-0.519 0.509,-0.531C0.501,-0.542 0.491,-0.553 0.48,-0.561C0.468,-0.569 0.455,-0.575 0.44,-0.58C0.425,-0.584 0.408,-0.586 0.39,-0.586C0.355,-0.586 0.324,-0.577 0.298,-0.56C0.272,-0.543 0.252,-0.518 0.238,-0.485C0.223,-0.452 0.216,-0.412 0.216,-0.365C0.216,-0.318 0.223,-0.277 0.237,-0.244C0.251,-0.211 0.271,-0.185 0.297,-0.168C0.323,-0.15 0.354,-0.141 0.391,-0.141C0.423,-0.141 0.451,-0.147 0.474,-0.158C0.497,-0.169 0.514,-0.184 0.525,-0.204C0.537,-0.224 0.543,-0.247 0.543,-0.274L0.576,-0.27L0.398,-0.27L0.398,-0.397L0.71,-0.397L0.71,-0.301C0.71,-0.236 0.696,-0.18 0.668,-0.134C0.641,-0.088 0.603,-0.052 0.555,-0.027C0.507,-0.003 0.451,0.01 0.389,0.01Z" style="fill:rgb(35,31,32);fill-rule:nonzero;"/>
        </g>
        <g transform="matrix(50,0,0,50,645.700636,547.730259)">
            <path d="M0.056,-0L0.056,-0.546L0.221,-0.546L0.221,-0.446L0.227,-0.446C0.237,-0.482 0.253,-0.509 0.276,-0.527C0.299,-0.544 0.325,-0.553 0.355,-0.553C0.363,-0.553 0.371,-0.552 0.38,-0.551C0.388,-0.55 0.396,-0.549 0.403,-0.547L0.403,-0.399C0.395,-0.401 0.385,-0.404 0.371,-0.405C0.358,-0.406 0.346,-0.407 0.336,-0.407C0.315,-0.407 0.296,-0.403 0.28,-0.393C0.263,-0.384 0.25,-0.371 0.241,-0.355C0.231,-0.339 0.227,-0.32 0.227,-0.298L0.227,-0L0.056,-0Z" style="fill:rgb(35,31,32);fill-rule:nonzero;"/>
        </g>
        <g transform="matrix(50,0,0,50,663.718242,547.730259)">
            <path d="M0.209,0.01C0.174,0.01 0.143,0.004 0.116,-0.008C0.089,-0.02 0.068,-0.038 0.052,-0.062C0.037,-0.086 0.029,-0.116 0.029,-0.152C0.029,-0.182 0.034,-0.207 0.045,-0.228C0.056,-0.249 0.07,-0.266 0.089,-0.279C0.108,-0.292 0.13,-0.302 0.154,-0.308C0.179,-0.315 0.205,-0.32 0.232,-0.322C0.263,-0.325 0.288,-0.328 0.307,-0.331C0.326,-0.334 0.34,-0.338 0.349,-0.345C0.357,-0.351 0.362,-0.359 0.362,-0.371L0.362,-0.373C0.362,-0.385 0.359,-0.396 0.353,-0.405C0.347,-0.414 0.339,-0.42 0.328,-0.425C0.317,-0.429 0.303,-0.432 0.287,-0.432C0.272,-0.432 0.258,-0.429 0.246,-0.425C0.234,-0.42 0.224,-0.414 0.216,-0.405C0.208,-0.397 0.202,-0.387 0.199,-0.375L0.045,-0.396C0.052,-0.427 0.066,-0.454 0.087,-0.478C0.108,-0.501 0.136,-0.52 0.17,-0.533C0.204,-0.546 0.244,-0.553 0.289,-0.553C0.323,-0.553 0.355,-0.549 0.384,-0.541C0.413,-0.533 0.439,-0.521 0.461,-0.506C0.484,-0.49 0.501,-0.471 0.513,-0.448C0.526,-0.426 0.532,-0.4 0.532,-0.371L0.532,-0L0.372,-0L0.372,-0.076L0.367,-0.076C0.357,-0.058 0.345,-0.042 0.33,-0.029C0.315,-0.017 0.297,-0.007 0.277,-0C0.257,0.006 0.234,0.01 0.209,0.01ZM0.261,-0.103C0.28,-0.103 0.297,-0.107 0.313,-0.115C0.328,-0.123 0.34,-0.133 0.349,-0.147C0.359,-0.161 0.363,-0.176 0.363,-0.194L0.363,-0.247C0.358,-0.244 0.352,-0.242 0.345,-0.239C0.337,-0.237 0.329,-0.235 0.321,-0.233C0.312,-0.231 0.303,-0.23 0.294,-0.228C0.285,-0.227 0.277,-0.225 0.269,-0.224C0.252,-0.222 0.238,-0.218 0.227,-0.212C0.215,-0.207 0.206,-0.2 0.2,-0.191C0.194,-0.182 0.191,-0.172 0.191,-0.159C0.191,-0.147 0.194,-0.137 0.2,-0.129C0.206,-0.12 0.214,-0.114 0.224,-0.11C0.235,-0.105 0.247,-0.103 0.261,-0.103Z" style="fill:rgb(35,31,32);fill-rule:nonzero;"/>
        </g>
        <g transform="matrix(50,0,0,50,690.202634,547.730259)">
            <path d="M0.209,-0L0.011,-0.546L0.19,-0.546L0.272,-0.279C0.283,-0.243 0.293,-0.206 0.301,-0.169C0.309,-0.132 0.317,-0.092 0.326,-0.051L0.294,-0.051C0.303,-0.092 0.311,-0.132 0.319,-0.169C0.327,-0.206 0.336,-0.243 0.347,-0.279L0.427,-0.546L0.604,-0.546L0.406,-0L0.209,-0Z" style="fill:rgb(35,31,32);fill-rule:nonzero;"/>
        </g>
        <g transform="matrix(50,0,0,50,718.956575,547.730259)">
            <path d="M0.056,-0L0.056,-0.546L0.227,-0.546L0.227,-0L0.056,-0ZM0.141,-0.61C0.117,-0.61 0.096,-0.618 0.079,-0.634C0.062,-0.65 0.053,-0.669 0.053,-0.692C0.053,-0.715 0.062,-0.734 0.079,-0.75C0.096,-0.766 0.117,-0.774 0.141,-0.774C0.166,-0.774 0.186,-0.766 0.204,-0.75C0.221,-0.734 0.229,-0.715 0.229,-0.692C0.229,-0.669 0.221,-0.65 0.204,-0.634C0.186,-0.618 0.166,-0.61 0.141,-0.61Z" style="fill:rgb(35,31,32);fill-rule:nonzero;"/>
        </g>
        <g transform="matrix(50,0,0,50,731.106992,547.730259)">
            <path d="M0.351,-0.546L0.351,-0.419L0.01,-0.419L0.01,-0.546L0.351,-0.546ZM0.082,-0.676L0.252,-0.676L0.252,-0.167C0.252,-0.153 0.256,-0.142 0.263,-0.135C0.27,-0.128 0.281,-0.124 0.296,-0.124C0.302,-0.124 0.31,-0.125 0.321,-0.126C0.331,-0.128 0.339,-0.129 0.343,-0.131L0.365,-0.006C0.346,-0.001 0.328,0.003 0.31,0.005C0.292,0.007 0.275,0.008 0.259,0.008C0.201,0.008 0.157,-0.006 0.127,-0.033C0.097,-0.06 0.082,-0.1 0.082,-0.152L0.082,-0.676Z" style="fill:rgb(35,31,32);fill-rule:nonzero;"/>
        </g>
        <g transform="matrix(50,0,0,50,749.382418,547.730259)">
            <path d="M0.055,0.191L0.093,0.067L0.114,0.073C0.135,0.078 0.153,0.08 0.168,0.077C0.184,0.075 0.195,0.069 0.204,0.06C0.212,0.051 0.216,0.039 0.215,0.024L0.214,0.001L0.011,-0.546L0.19,-0.546L0.272,-0.279C0.283,-0.242 0.292,-0.206 0.298,-0.169C0.304,-0.132 0.312,-0.093 0.321,-0.051L0.286,-0.051C0.295,-0.093 0.303,-0.132 0.312,-0.169C0.321,-0.206 0.331,-0.243 0.342,-0.279L0.43,-0.546L0.607,-0.546L0.379,0.057C0.368,0.087 0.353,0.113 0.335,0.136C0.317,0.158 0.294,0.176 0.266,0.189C0.238,0.202 0.204,0.208 0.163,0.208C0.142,0.208 0.122,0.206 0.103,0.203C0.083,0.2 0.067,0.196 0.055,0.191Z" style="fill:rgb(35,31,32);fill-rule:nonzero;"/>
        </g>
        <g transform="matrix(50,0,0,50,778.284797,547.730259)">
        </g>
        <g transform="matrix(48.16952,0,0,48.16952,787.23007,547.730259)">
            <path d="M0.317,-0L0.137,-0L0.137,-0.097L0.311,-0.097C0.366,-0.097 0.412,-0.108 0.448,-0.128C0.485,-0.149 0.512,-0.179 0.53,-0.219C0.548,-0.259 0.558,-0.307 0.558,-0.365C0.558,-0.422 0.548,-0.47 0.53,-0.509C0.512,-0.549 0.485,-0.579 0.45,-0.599C0.414,-0.62 0.37,-0.63 0.317,-0.63L0.133,-0.63L0.133,-0.728L0.324,-0.728C0.396,-0.728 0.457,-0.713 0.508,-0.684C0.559,-0.655 0.598,-0.613 0.626,-0.559C0.653,-0.505 0.667,-0.44 0.667,-0.365C0.667,-0.289 0.653,-0.224 0.626,-0.169C0.598,-0.115 0.558,-0.073 0.506,-0.044C0.454,-0.015 0.391,-0 0.317,-0ZM0.192,-0.728L0.192,-0L0.081,-0L0.081,-0.728L0.192,-0.728Z" style="fill:rgb(35,31,32);fill-rule:nonzero;"/>
        </g>
        <g transform="matrix(48.16952,0,0,48.16952,820.07472,547.730259)">
            <path d="M0.302,0.011C0.251,0.011 0.206,-0 0.168,-0.024C0.129,-0.047 0.1,-0.08 0.079,-0.122C0.058,-0.165 0.047,-0.214 0.047,-0.27C0.047,-0.327 0.058,-0.376 0.079,-0.419C0.1,-0.461 0.129,-0.494 0.168,-0.518C0.206,-0.541 0.251,-0.553 0.302,-0.553C0.353,-0.553 0.398,-0.541 0.436,-0.518C0.475,-0.494 0.504,-0.461 0.525,-0.419C0.547,-0.376 0.557,-0.327 0.557,-0.27C0.557,-0.214 0.547,-0.165 0.525,-0.122C0.504,-0.08 0.475,-0.047 0.436,-0.024C0.398,-0 0.353,0.011 0.302,0.011ZM0.302,-0.079C0.335,-0.079 0.362,-0.088 0.384,-0.106C0.406,-0.123 0.422,-0.146 0.432,-0.175C0.443,-0.204 0.448,-0.236 0.448,-0.27C0.448,-0.305 0.443,-0.337 0.432,-0.366C0.422,-0.395 0.406,-0.418 0.384,-0.436C0.362,-0.453 0.335,-0.462 0.302,-0.462C0.269,-0.462 0.242,-0.453 0.22,-0.436C0.199,-0.418 0.183,-0.395 0.172,-0.366C0.162,-0.337 0.156,-0.305 0.156,-0.27C0.156,-0.236 0.162,-0.204 0.172,-0.175C0.183,-0.146 0.199,-0.123 0.22,-0.106C0.242,-0.088 0.269,-0.079 0.302,-0.079Z" style="fill:rgb(35,31,32);fill-rule:nonzero;"/>
        </g>
        <g transform="matrix(48.16952,0,0,48.16952,847.250976,547.730259)">
            <path d="M0.302,0.011C0.25,0.011 0.206,-0 0.168,-0.024C0.129,-0.047 0.1,-0.08 0.079,-0.122C0.058,-0.165 0.047,-0.214 0.047,-0.27C0.047,-0.327 0.058,-0.376 0.079,-0.419C0.1,-0.461 0.129,-0.494 0.168,-0.518C0.206,-0.541 0.25,-0.553 0.302,-0.553C0.33,-0.553 0.357,-0.549 0.381,-0.542C0.406,-0.534 0.428,-0.524 0.448,-0.51C0.468,-0.496 0.485,-0.479 0.499,-0.459C0.513,-0.439 0.523,-0.417 0.53,-0.392L0.428,-0.367C0.425,-0.381 0.419,-0.394 0.412,-0.406C0.404,-0.417 0.395,-0.427 0.385,-0.436C0.374,-0.444 0.362,-0.451 0.348,-0.455C0.334,-0.46 0.319,-0.462 0.302,-0.462C0.269,-0.462 0.242,-0.453 0.22,-0.436C0.199,-0.418 0.183,-0.395 0.172,-0.366C0.162,-0.337 0.156,-0.305 0.156,-0.27C0.156,-0.235 0.162,-0.204 0.172,-0.175C0.183,-0.146 0.199,-0.123 0.22,-0.105C0.242,-0.088 0.269,-0.079 0.302,-0.079C0.319,-0.079 0.335,-0.082 0.349,-0.087C0.363,-0.091 0.375,-0.098 0.386,-0.107C0.397,-0.115 0.406,-0.126 0.414,-0.138C0.421,-0.15 0.427,-0.164 0.43,-0.178L0.532,-0.154C0.525,-0.128 0.515,-0.105 0.501,-0.085C0.487,-0.064 0.47,-0.047 0.45,-0.033C0.43,-0.018 0.407,-0.007 0.382,0C0.357,0.008 0.33,0.011 0.302,0.011Z" style="fill:rgb(35,31,32);fill-rule:nonzero;"/>
        </g>
        <g transform="matrix(48.16952,0,0,48.16952,873.118092,547.730259)">
            <path d="M0.268,0.011C0.229,0.011 0.193,0.006 0.163,-0.006C0.132,-0.017 0.107,-0.034 0.087,-0.056C0.067,-0.079 0.054,-0.106 0.048,-0.138L0.149,-0.159C0.157,-0.131 0.171,-0.11 0.191,-0.096C0.211,-0.083 0.237,-0.076 0.269,-0.076C0.304,-0.076 0.331,-0.083 0.352,-0.097C0.372,-0.112 0.382,-0.129 0.382,-0.15C0.382,-0.167 0.376,-0.181 0.364,-0.193C0.351,-0.204 0.332,-0.213 0.306,-0.218L0.214,-0.239C0.163,-0.251 0.126,-0.269 0.101,-0.294C0.076,-0.319 0.064,-0.351 0.064,-0.39C0.064,-0.423 0.073,-0.451 0.091,-0.475C0.109,-0.5 0.134,-0.519 0.166,-0.532C0.197,-0.546 0.234,-0.553 0.275,-0.553C0.314,-0.553 0.348,-0.547 0.376,-0.536C0.404,-0.524 0.427,-0.508 0.444,-0.488C0.461,-0.467 0.474,-0.444 0.482,-0.417L0.385,-0.395C0.378,-0.415 0.367,-0.431 0.35,-0.446C0.333,-0.461 0.308,-0.468 0.276,-0.468C0.246,-0.468 0.221,-0.461 0.202,-0.448C0.182,-0.435 0.172,-0.417 0.172,-0.397C0.172,-0.379 0.178,-0.364 0.192,-0.353C0.205,-0.341 0.226,-0.332 0.256,-0.326L0.344,-0.306C0.395,-0.295 0.432,-0.277 0.457,-0.252C0.481,-0.228 0.493,-0.197 0.493,-0.159C0.493,-0.125 0.484,-0.096 0.465,-0.071C0.446,-0.045 0.419,-0.025 0.385,-0.01C0.352,0.004 0.313,0.011 0.268,0.011Z" style="fill:rgb(35,31,32);fill-rule:nonzero;"/>
        </g>
        <g transform="matrix(48.16952,0,0,48.16952,899.064225,547.730259)">
        </g>
    </g>
</svg>
